<svg width="30" height="30" viewBox="0 0 30 30" fill="none" xmlns="http://www.w3.org/2000/svg">
<path d="M30 5.74975L23.1 0L21.165 2.27905L28.065 8.0288L30 5.74975ZM8.82 2.27905L6.9 0L0 5.73486L1.935 8.0139L8.82 2.27905ZM15.75 9.14598H13.5V18.0834L20.625 22.3287L21.75 20.4965L15.75 16.9662V9.14598ZM15 3.18769C7.545 3.18769 1.5 9.19067 1.5 16.5938C1.5 23.997 7.53 30 15 30C22.455 30 28.5 23.997 28.5 16.5938C28.5 9.19067 22.455 3.18769 15 3.18769ZM15 27.0209C9.195 27.0209 4.5 22.3585 4.5 16.5938C4.5 10.8292 9.195 6.16683 15 6.16683C20.805 6.16683 25.5 10.8292 25.5 16.5938C25.5 22.3585 20.805 27.0209 15 27.0209Z" fill="white"/>
</svg>
