<svg width="25" height="25" viewBox="0 0 25 25" fill="none" xmlns="http://www.w3.org/2000/svg">
<path d="M6.125 7.83333C6.125 7.64547 6.19963 7.4653 6.33247 7.33247C6.4653 7.19963 6.64547 7.125 6.83333 7.125H18.1667C18.3545 7.125 18.5347 7.19963 18.6675 7.33247C18.8004 7.4653 18.875 7.64547 18.875 7.83333V9.66508C18.875 9.85293 18.8003 10.0331 18.6675 10.1659L14.1242 14.7091C13.9914 14.8419 13.9167 15.0221 13.9167 15.2099V17.0417L11.0833 19.875V15.2099C11.0833 15.0221 11.0086 14.8419 10.8758 14.7091L6.33254 10.1659C6.19969 10.0331 6.12504 9.85293 6.125 9.66508V7.83333Z" stroke="#5865F2" stroke-width="2" stroke-linecap="round" stroke-linejoin="round"/>
<circle cx="12.5" cy="12.5" r="11.5" stroke="#5865F2" stroke-width="2"/>
</svg>
