<svg width="22" height="22" viewBox="0 0 22 22" fill="none" xmlns="http://www.w3.org/2000/svg">
<path d="M19.0828 17.0133C18.6726 15.4928 18.5029 15.8193 17.7851 14.8595C17.0673 13.8997 16.3242 13.4522 15.7193 13.6154L11.1579 14.8461C10.553 15.0093 10.1359 15.7699 9.99828 16.9605C9.86067 18.1511 9.54977 17.9542 9.96004 19.4748M11 19C11.3627 17.4333 11.0881 17.6538 10.967 16.4585C10.8458 15.2633 10.4777 14.5223 9.9436 14.3987L5.9161 13.4662C5.38202 13.3426 4.72572 13.8464 4.09158 14.8668C3.45745 15.8872 3.30771 15.5684 2.94499 17.1351M18 8C18 9.65685 16.6569 11 15 11C13.3431 11 12 9.65685 12 8C12 6.34315 13.3431 5 15 5C16.6569 5 18 6.34315 18 8ZM11 9C11 10.6569 9.65685 12 8 12C6.34315 12 5 10.6569 5 9C5 7.34315 6.34315 6 8 6C9.65685 6 11 7.34315 11 9ZM21 11C21 16.5228 16.5228 21 11 21C5.47715 21 1 16.5228 1 11C1 5.47715 5.47715 1 11 1C16.5228 1 21 5.47715 21 11Z" stroke="#222222" stroke-width="2" stroke-linecap="round" stroke-linejoin="round"/>
</svg>
