<svg width="18" height="18" viewBox="0 0 18 18" fill="none" xmlns="http://www.w3.org/2000/svg">
<path d="M3.10223 3.44735C4.27445 2.20237 6.23932 2.14323 7.4843 3.31546L10.3965 6.05752L11.699 4.67421L8.78678 1.93215C6.77734 0.0401296 3.61093 0.13543 1.71891 2.14487C-0.173107 4.15432 -0.0778058 7.32072 1.93164 9.21274L4.84387 11.9548L6.14635 10.5715L3.23411 7.82943C1.98913 6.6572 1.93 4.69233 3.10223 3.44735ZM5.40175 6.98602L11.2262 12.4701L12.5973 11.014L6.77278 5.5299L5.40175 6.98602ZM16.0674 8.78729L13.1551 6.04523L11.8527 7.42855L14.7649 10.1706C16.0099 11.3428 16.069 13.3077 14.8968 14.5527C13.7246 15.7977 11.7597 15.8568 10.5147 14.6846L7.60247 11.9425L6.29999 13.3258L9.21223 16.0679C11.2217 17.9599 14.3881 17.8646 16.2801 15.8552C18.1721 13.8457 18.0768 10.6793 16.0674 8.78729Z" fill="black"/>
</svg>
