<svg width="20" height="20" viewBox="0 0 20 20" fill="none" xmlns="http://www.w3.org/2000/svg">
<path fill-rule="evenodd" clip-rule="evenodd" d="M7.49206 4.86927C6.3185 5.08774 5.4635 6.15851 5.3235 7.43235L4.28564 16.9231H15.7142L14.6742 7.41927C14.5356 6.15158 13.6885 5.08312 12.5213 4.86312C10.7713 4.53312 9.31277 4.53004 7.49206 4.86927ZM8.37849 8.19081C8.39724 7.99097 8.34266 7.79116 8.22642 7.63408C8.11018 7.477 7.94149 7.37511 7.75642 7.3502C7.57135 7.32529 7.38457 7.37932 7.236 7.50075C7.08743 7.62218 6.98886 7.80138 6.96135 8.00004L6.31492 13.5677C6.30088 13.6692 6.30581 13.7726 6.32942 13.8719C6.35304 13.9713 6.39486 14.0645 6.45243 14.1462C6.50999 14.2279 6.58215 14.2964 6.66464 14.3476C6.74714 14.3988 6.83831 14.4318 6.9328 14.4445C7.02729 14.4572 7.12319 14.4494 7.21485 14.4217C7.30652 14.3939 7.3921 14.3467 7.46657 14.2827C7.54103 14.2188 7.60288 14.1395 7.64848 14.0495C7.69407 13.9595 7.72249 13.8605 7.73206 13.7585L8.37849 8.19081Z" fill="#49FF00"/>
<path fill-rule="evenodd" clip-rule="evenodd" d="M8.90992 6.21312C9.22576 6.45461 9.47491 6.78378 9.63087 7.16561C9.78683 7.54745 9.84377 7.96767 9.79563 8.38158L9.14992 13.9493C9.08277 14.5262 8.8242 15.0262 8.44992 15.3847H14.107L13.2556 7.59927C13.1828 6.93004 12.7528 6.4685 12.2756 6.3785C11.0821 6.15389 10.0542 6.0962 8.90992 6.21312ZM14.6742 7.41927C14.5356 6.15158 13.6885 5.08312 12.5213 4.86312C10.7713 4.53312 9.31277 4.53004 7.49206 4.86927C6.3185 5.08774 5.4635 6.15851 5.3235 7.43235L4.28564 16.9231H15.7142L14.6742 7.41927ZM8.37849 8.19081L7.73206 13.7585C7.72249 13.8605 7.69407 13.9595 7.64848 14.0495C7.60288 14.1395 7.54103 14.2188 7.46657 14.2827C7.3921 14.3467 7.30652 14.3939 7.21485 14.4217C7.12319 14.4494 7.02729 14.4572 6.9328 14.4445C6.83831 14.4318 6.74714 14.3988 6.66464 14.3476C6.58215 14.2964 6.50999 14.2279 6.45243 14.1462C6.39486 14.0645 6.35304 13.9713 6.32942 13.8719C6.30581 13.7726 6.30088 13.6692 6.31492 13.5677L6.96135 8.00004C6.97092 7.89801 6.99934 7.79908 7.04494 7.70905C7.09053 7.61902 7.15238 7.53971 7.22685 7.4758C7.30132 7.41189 7.3869 7.36466 7.47856 7.33688C7.57023 7.30911 7.66612 7.30135 7.76061 7.31407C7.8551 7.32679 7.94627 7.35973 8.02877 7.41095C8.11127 7.46217 8.18342 7.53064 8.24099 7.61232C8.29856 7.69401 8.34038 7.78727 8.36399 7.88661C8.3876 7.98596 8.39253 8.08939 8.37849 8.19081Z" fill="#49FF00"/>
<path fill-rule="evenodd" clip-rule="evenodd" d="M16.4284 19.9999H3.57129V18.4614H16.4284V19.9999Z" fill="#49FF00"/>
<path d="M2.14285 10.7692C2.14285 11.0285 2.15357 11.2846 2.17499 11.5385H0V10H2.17499C2.15357 10.2538 2.14285 10.51 2.14285 10.7692Z" fill="#49FF00"/>
<path d="M3.58005 5.88927C3.30457 6.30902 3.06524 6.75498 2.86505 7.22158L0.98291 6.05081L1.69719 4.71851L3.58005 5.88927Z" fill="#49FF00"/>
<path d="M6.70491 3.08475C6.26991 3.30244 5.85634 3.5609 5.4692 3.85552L4.38135 1.82782L5.61849 1.05859L6.70491 3.08552V3.08475Z" fill="#49FF00"/>
<path d="M9.99993 2.30769C9.75921 2.30769 9.52136 2.31923 9.28564 2.34231V0H10.7142V2.34231C10.4767 2.31928 10.2384 2.30773 9.99993 2.30769Z" fill="#49FF00"/>
<path d="M14.5316 3.85552C14.1418 3.55888 13.7277 3.30114 13.2944 3.08552L14.3816 1.05859L15.6187 1.82782L14.5316 3.85552Z" fill="#49FF00"/>
<path d="M17.1356 7.22081C16.9351 6.75471 16.6956 6.30927 16.4199 5.89004L18.3028 4.71851L19.0171 6.05081L17.1349 7.22081H17.1356Z" fill="#49FF00"/>
<path d="M17.8573 10.7692C17.8573 10.51 17.8466 10.2538 17.8252 10H20.0002V11.5385H17.8252C17.8466 11.2846 17.8573 11.0285 17.8573 10.7692Z" fill="#49FF00"/>
</svg>
