<svg width="20" height="20" viewBox="0 0 20 20" fill="none" xmlns="http://www.w3.org/2000/svg">
<path fill-rule="evenodd" clip-rule="evenodd" d="M7.49256 4.86927C6.31899 5.08774 5.46399 6.15851 5.32399 7.43235L4.28613 16.9231H15.7147L14.6747 7.41927C14.5361 6.15158 13.689 5.08312 12.5218 4.86312C10.7718 4.53312 9.31328 4.53004 7.49256 4.86927ZM8.37899 8.19081C8.39774 7.99097 8.34316 7.79116 8.22692 7.63408C8.11067 7.477 7.94199 7.37511 7.75692 7.3502C7.57185 7.32529 7.38507 7.37932 7.2365 7.50075C7.08793 7.62218 6.98935 7.80138 6.96185 8.00004L6.31542 13.5677C6.30137 13.6692 6.3063 13.7726 6.32992 13.8719C6.35353 13.9713 6.39535 14.0645 6.45292 14.1462C6.51049 14.2279 6.58264 14.2964 6.66514 14.3476C6.74764 14.3988 6.83881 14.4318 6.9333 14.4445C7.02779 14.4572 7.12368 14.4494 7.21535 14.4217C7.30701 14.3939 7.3926 14.3467 7.46706 14.2827C7.54153 14.2188 7.60338 14.1395 7.64898 14.0495C7.69457 13.9595 7.72299 13.8605 7.73256 13.7585L8.37899 8.19081Z" fill="#FF0000"/>
<path fill-rule="evenodd" clip-rule="evenodd" d="M8.91042 6.21312C9.22626 6.45461 9.47541 6.78378 9.63137 7.16561C9.78733 7.54745 9.84427 7.96767 9.79613 8.38158L9.15042 13.9493C9.08328 14.5262 8.8247 15.0262 8.45042 15.3847H14.1076L13.2561 7.59927C13.1833 6.93004 12.7533 6.4685 12.2761 6.3785C11.0826 6.15389 10.0547 6.0962 8.91042 6.21312ZM14.6747 7.41927C14.5361 6.15158 13.689 5.08312 12.5218 4.86312C10.7718 4.53312 9.31328 4.53004 7.49256 4.86927C6.31899 5.08774 5.46399 6.15851 5.32399 7.43235L4.28613 16.9231H15.7147L14.6747 7.41927ZM8.37899 8.19081L7.73256 13.7585C7.72299 13.8605 7.69457 13.9595 7.64898 14.0495C7.60338 14.1395 7.54153 14.2188 7.46706 14.2827C7.3926 14.3467 7.30701 14.3939 7.21535 14.4217C7.12368 14.4494 7.02779 14.4572 6.9333 14.4445C6.83881 14.4318 6.74764 14.3988 6.66514 14.3476C6.58264 14.2964 6.51049 14.2279 6.45292 14.1462C6.39535 14.0645 6.35353 13.9713 6.32992 13.8719C6.3063 13.7726 6.30137 13.6692 6.31542 13.5677L6.96185 8.00004C6.97142 7.89801 6.99984 7.79908 7.04543 7.70905C7.09103 7.61902 7.15288 7.53971 7.22734 7.4758C7.30181 7.41189 7.3874 7.36466 7.47906 7.33688C7.57073 7.30911 7.66662 7.30135 7.76111 7.31407C7.8556 7.32679 7.94677 7.35973 8.02927 7.41095C8.11177 7.46217 8.18392 7.53064 8.24149 7.61232C8.29906 7.69401 8.34088 7.78727 8.36449 7.88661C8.3881 7.98596 8.39303 8.08939 8.37899 8.19081Z" fill="#FF0000"/>
<path fill-rule="evenodd" clip-rule="evenodd" d="M16.4284 19.9999H3.57129V18.4614H16.4284V19.9999Z" fill="#FF0000"/>
<path d="M2.14286 10.7692C2.14286 11.0285 2.15357 11.2846 2.175 11.5385H0V10H2.175C2.15357 10.2538 2.14286 10.51 2.14286 10.7692Z" fill="#FF0000"/>
<path d="M3.57956 5.88927C3.30408 6.30902 3.06476 6.75498 2.86456 7.22158L0.982422 6.05081L1.69671 4.71851L3.57956 5.88927Z" fill="#FF0000"/>
<path d="M6.70443 3.0845C6.26943 3.3022 5.85586 3.56066 5.46872 3.85527L4.38086 1.82758L5.618 1.05835L6.70443 3.08527V3.0845Z" fill="#FF0000"/>
<path d="M9.99993 2.30769C9.75922 2.30769 9.52136 2.31923 9.28564 2.34231V0H10.7142V2.34231C10.4767 2.31928 10.2384 2.30773 9.99993 2.30769Z" fill="#FF0000"/>
<path d="M14.5321 3.85527C14.1423 3.55863 13.7282 3.3009 13.2949 3.08527L14.3821 1.05835L15.6192 1.82758L14.5321 3.85527Z" fill="#FF0000"/>
<path d="M17.1356 7.22081C16.9351 6.75471 16.6956 6.30927 16.4199 5.89004L18.3028 4.71851L19.0171 6.05081L17.1349 7.22081H17.1356Z" fill="#FF0000"/>
<path d="M17.8573 10.7692C17.8573 10.51 17.8466 10.2538 17.8252 10H20.0002V11.5385H17.8252C17.8466 11.2846 17.8573 11.0285 17.8573 10.7692Z" fill="#FF0000"/>
</svg>
